<svg width="1440" height="711" viewBox="0 0 1440 711" fill="none" xmlns="http://www.w3.org/2000/svg"><g clip-path="url(#clip0)"><rect width="1440" height="900" transform="translate(0 -189)" fill="#000"/><g filter="url(#filter0_f)"><ellipse cx="898.624" cy="691.788" rx="592.5" ry="327" transform="rotate(-6.48121 898.624 691.788)" fill="#7349F2"/></g><g filter="url(#filter1_f)"><path d="M1315 490.499C1368.98 414.021 1372.06 355.649 1399 265.999C1450.99 92.9453 1412.7 -20.7014 1474.5 -190.501C1600.6 -536.966 1818.65 553.64 1508.5 752.999C1313.53 878.323 743.008 908.367 914.999 752.999C983.686 690.95 1049.43 697.502 1127 646.999C1207.06 594.879 1259.91 568.545 1315 490.499Z" fill="url(#paint0_linear)"/></g><g filter="url(#filter2_f)"><path d="M231.88 542.946C90.0734 552.276 -2.4787 604.62 -92.5012 726.407C-274.87 973.124 790.639 1051.5 642.249 780.451C548.686 609.552 413.012 531.029 231.88 542.946Z" fill="#0C6CF2"/></g><g filter="url(#filter3_f)"><path d="M237.841 611.357C119.932 619.114 42.9768 662.637 -31.8748 763.9C-183.51 969.039 702.435 1034.21 579.052 808.837C501.257 666.738 388.448 601.448 237.841 611.357Z" fill="#17CF73"/></g><rect width="1440" height="711" fill="#121D33" style="mix-blend-mode:lighten"/></g><defs><filter id="filter0_f" x="8.734" y="60" width="1779.78" height="1263.58" filterUnits="userSpaceOnUse" color-interpolation-filters="sRGB"><feFlood flood-opacity="0" result="BackgroundImageFix"/><feBlend mode="normal" in="SourceGraphic" in2="BackgroundImageFix" result="shape"/><feGaussianBlur stdDeviation="150" result="effect1_foregroundBlur"/></filter><filter id="filter1_f" x="633.105" y="-507.977" width="1284.19" height="1616.53" filterUnits="userSpaceOnUse" color-interpolation-filters="sRGB"><feFlood flood-opacity="0" result="BackgroundImageFix"/><feBlend mode="normal" in="SourceGraphic" in2="BackgroundImageFix" result="shape"/><feGaussianBlur stdDeviation="125" result="effect1_foregroundBlur"/></filter><filter id="filter2_f" x="-413.572" y="241.77" width="1370.05" height="1008.95" filterUnits="userSpaceOnUse" color-interpolation-filters="sRGB"><feFlood flood-opacity="0" result="BackgroundImageFix"/><feBlend mode="normal" in="SourceGraphic" in2="BackgroundImageFix" result="shape"/><feGaussianBlur stdDeviation="150" result="effect1_foregroundBlur"/></filter><filter id="filter3_f" x="-249.395" y="410.379" width="1040.28" height="740.033" filterUnits="userSpaceOnUse" color-interpolation-filters="sRGB"><feFlood flood-opacity="0" result="BackgroundImageFix"/><feBlend mode="normal" in="SourceGraphic" in2="BackgroundImageFix" result="shape"/><feGaussianBlur stdDeviation="100" result="effect1_foregroundBlur"/></filter><linearGradient id="paint0_linear" x1="1421.5" y1="126.999" x2="1224.5" y2="697.999" gradientUnits="userSpaceOnUse"><stop stop-color="#FF0095"/><stop offset="1" stop-color="#FFCDFF"/></linearGradient><clipPath id="clip0"><rect width="1440" height="900" fill="#fff" transform="translate(0 -189)"/></clipPath></defs></svg>